#N canvas 670 66 756 748 10;
#X obj 102 152 bng 15 250 50 0 empty empty empty 17 7 0 10 -262144
-1 -1;
#X floatatom 505 149 5 0 0 0 - - -, f 5;
#X obj 101 37 adc~;
#X obj 183 315 line;
#X floatatom 183 366 5 0 0 0 - - -, f 5;
#X msg 128 266 0 0;
#X obj 123 201 t b b;
#X msg 214 289 1 \$1;
#X text 250 290 < input in ms the length of each beat;
#X text 165 265 < reset ramp on start of beat;
#X floatatom 424 227 5 0 0 0 - - -, f 5;
#X obj 424 200 /;
#X msg 424 166 60000;
#X obj 471 173 t f b;
#X text 206 166 bpm / 60000 give ms per beat >;
#X obj 424 253 spigot;
#X msg 231 211 1;
#X msg 223 316 0;
#X obj 563 406 list prepend send;
#X obj 563 433 list trim;
#X obj 183 505 outlet;
#X obj 563 380 oscformat beatramp;
#X obj 563 505 outlet;
#X obj 505 507 outlet;
#X obj 608 477 s beatramp;
#X obj 102 96 ibt_pd @winSize 1024 @hopSize 512 @inductionTime 8 @minBPM
91 @maxBPM 160 @stateRecovery 0;
#X obj 57 505 outlet;
#X obj 58 481 bng 15 250 50 0 empty empty empty 17 7 0 10 -262144 -1
-1;
#X obj 32 416 list prepend send;
#X obj 32 443 list trim;
#X msg 33 363 1;
#X obj 34 529 s beatramp/reset;
#X obj 32 390 oscformat beatramp reset;
#X obj 538 182 s bpm;
#X obj 294 664 s barramp;
#X obj 291 494 / 4;
#X obj 291 463 line;
#X obj 290 379 f;
#X obj 319 379 + 1;
#X obj 290 360 bng 15 250 50 0 empty empty empty 17 7 0 10 -262144
-1 -1;
#X msg 365 348 0;
#X floatatom 291 429 5 0 0 0 - - -, f 5;
#X msg 289 331 1;
#X obj 290 402 % 4;
#X obj 357 407 change;
#X obj 356 459 \$1 \$2;
#X obj 357 433 + 1;
#X msg 408 436 0 0;
#X obj 469 410 == 0;
#X obj 456 444 sel 1;
#X obj 287 601 list prepend send;
#X obj 287 628 list trim;
#X obj 287 575 oscformat barramp;
#X obj 322 524 s barramp-raw;
#X obj 495 623 r reset-bar;
#X msg 501 656 0;
#X connect 0 0 6 0;
#X connect 0 0 42 0;
#X connect 1 0 13 0;
#X connect 1 0 23 0;
#X connect 1 0 33 0;
#X connect 2 0 25 0;
#X connect 2 1 25 0;
#X connect 3 0 4 0;
#X connect 4 0 20 0;
#X connect 4 0 21 0;
#X connect 5 0 3 0;
#X connect 5 0 30 0;
#X connect 6 0 16 0;
#X connect 6 1 5 0;
#X connect 7 0 3 0;
#X connect 7 0 17 0;
#X connect 10 0 15 0;
#X connect 10 0 45 1;
#X connect 11 0 10 0;
#X connect 12 0 11 0;
#X connect 13 0 11 1;
#X connect 13 1 12 0;
#X connect 15 0 7 0;
#X connect 16 0 15 1;
#X connect 17 0 15 1;
#X connect 18 0 19 0;
#X connect 19 0 22 0;
#X connect 19 0 24 0;
#X connect 21 0 18 0;
#X connect 25 0 0 0;
#X connect 25 1 1 0;
#X connect 27 0 26 0;
#X connect 28 0 29 0;
#X connect 29 0 31 0;
#X connect 30 0 27 0;
#X connect 30 0 32 0;
#X connect 32 0 28 0;
#X connect 35 0 52 0;
#X connect 35 0 53 0;
#X connect 36 0 35 0;
#X connect 37 0 38 0;
#X connect 37 0 43 0;
#X connect 38 0 37 1;
#X connect 39 0 37 0;
#X connect 40 0 37 0;
#X connect 41 0 44 0;
#X connect 42 0 39 0;
#X connect 43 0 41 0;
#X connect 44 0 48 0;
#X connect 44 0 46 0;
#X connect 45 0 36 0;
#X connect 46 0 45 0;
#X connect 47 0 36 0;
#X connect 48 0 49 0;
#X connect 49 0 47 0;
#X connect 50 0 51 0;
#X connect 51 0 34 0;
#X connect 52 0 50 0;
#X connect 54 0 55 0;
#X connect 55 0 37 0;
#X connect 55 0 43 0;
#X connect 55 0 41 0;
