#N canvas 353 61 1171 763 10;
#X obj 99 31 c2o 1 encoder/1;
#X obj 160 84 c2o 3 encoder/3;
#X obj 161 111 c2o 4 encoder/4;
#X obj 250 32 c2o 5 encoder/5;
#X obj 265 55 c2o 6 encoder/6;
#X obj 274 80 c2o 7 encoder/7;
#X obj 379 51 c2o 10 encoder/10;
#X obj 388 76 c2o 11 encoder/11;
#X obj 389 103 c2o 12 encoder/12;
#X obj 502 15 c2o 13 encoder/13;
#X obj 510 46 c2o 14 encoder/14;
#X obj 519 71 c2o 15 encoder/15;
#X obj 364 28 c2o 9 encoder/9;
#X obj 454 405 outlet;
#X obj 657 245 list prepend send;
#X obj 657 272 list trim;
#X obj 657 149 ctlin 2;
#X obj 656 217 oscformat encoder/2;
#X obj 654 183 * 5e-005;
#X obj 665 30 c2o 20 toggle/1;
#X obj 665 50 c2o 21 toggle/2;
#X obj 665 73 c2o 22 toggle/3;
#X obj 665 94 c2o 23 toggle/4;
#X obj 768 29 c2o 24 toggle/5;
#X obj 768 49 c2o 25 toggle/6;
#X obj 769 72 c2o 26 toggle/7;
#X obj 768 93 c2o 27 toggle/8;
#X obj 875 30 c2o 28 toggle/9;
#X obj 875 50 c2o 29 toggle/10;
#X obj 875 73 c2o 30 toggle/11;
#X obj 875 94 c2o 31 toggle/12;
#X obj 978 29 c2o 32 toggle/13;
#X obj 978 49 c2o 33 toggle/14;
#X obj 979 72 c2o 34 toggle/15;
#X obj 978 93 c2o 35 toggle/16;
#X obj 521 98 c2of 16 encoder/16;
#X obj 922 208 notein;
#X obj 991 232 == \$1;
#X obj 922 278 spigot;
#X obj 919 243 pack, f 5;
#X obj 922 368 unpack;
#X obj 922 398 pack;
#X obj 922 431 spigot;
#X obj 975 402 != 0;
#X obj 921 489 unpack;
#X obj 894 458 t a a;
#X obj 808 558 unpack;
#X obj 851 591 oscformat pad;
#X obj 972 489 + 1;
#X obj 922 517 list prepend pad;
#X msg 861 551 set \$1 \$2;
#X obj 850 618 list prepend send;
#X obj 851 645 list trim;
#X msg 1024 577 set \$1;
#X obj 990 552 t a a;
#X msg 987 593 \$2;
#X obj 1007 632 oscformat;
#X obj 1008 660 list prepend send;
#X obj 1007 689 list trim;
#X text 688 395 This outputs at /pad/num: velocity as well as at /pad:
num;
#X obj 275 107 c2of 8 encoder/8;
#X connect 0 0 13 0;
#X connect 1 0 13 0;
#X connect 2 0 13 0;
#X connect 3 0 13 0;
#X connect 4 0 13 0;
#X connect 5 0 13 0;
#X connect 6 0 13 0;
#X connect 7 0 13 0;
#X connect 8 0 13 0;
#X connect 9 0 13 0;
#X connect 10 0 13 0;
#X connect 11 0 13 0;
#X connect 12 0 13 0;
#X connect 14 0 15 0;
#X connect 15 0 13 0;
#X connect 16 0 18 0;
#X connect 17 0 14 0;
#X connect 18 0 17 0;
#X connect 19 0 13 0;
#X connect 20 0 13 0;
#X connect 21 0 13 0;
#X connect 22 0 13 0;
#X connect 23 0 13 0;
#X connect 24 0 13 0;
#X connect 25 0 13 0;
#X connect 26 0 13 0;
#X connect 27 0 13 0;
#X connect 28 0 13 0;
#X connect 29 0 13 0;
#X connect 30 0 13 0;
#X connect 31 0 13 0;
#X connect 32 0 13 0;
#X connect 33 0 13 0;
#X connect 34 0 13 0;
#X connect 35 0 13 0;
#X connect 36 0 39 0;
#X connect 36 1 39 1;
#X connect 36 2 37 0;
#X connect 37 0 38 1;
#X connect 38 0 40 0;
#X connect 39 0 38 0;
#X connect 40 0 41 0;
#X connect 40 1 43 0;
#X connect 40 1 41 1;
#X connect 41 0 42 0;
#X connect 42 0 45 0;
#X connect 43 0 42 1;
#X connect 44 0 48 0;
#X connect 45 0 46 0;
#X connect 45 1 44 0;
#X connect 46 1 47 0;
#X connect 47 0 51 0;
#X connect 48 0 49 0;
#X connect 49 0 50 0;
#X connect 49 0 54 0;
#X connect 50 0 47 0;
#X connect 51 0 52 0;
#X connect 52 0 13 0;
#X connect 53 0 56 0;
#X connect 54 0 55 0;
#X connect 54 1 53 0;
#X connect 55 0 56 0;
#X connect 56 0 57 0;
#X connect 57 0 58 0;
#X connect 58 0 13 0;
#X connect 60 0 13 0;
