#N canvas 0 50 1171 648 10;
#X obj 136 36 c2o 1 encoder/1;
#X obj 160 84 c2o 3 encoder/3;
#X obj 161 111 c2o 4 encoder/4;
#X obj 250 32 c2o 5 encoder/5;
#X obj 265 55 c2o 6 encoder/6;
#X obj 274 80 c2o 7 encoder/7;
#X obj 275 107 c2o 8 encoder/8;
#X obj 379 51 c2o 10 encoder/10;
#X obj 388 76 c2o 11 encoder/11;
#X obj 389 103 c2o 12 encoder/12;
#X obj 495 23 c2o 13 encoder/13;
#X obj 510 46 c2o 14 encoder/14;
#X obj 519 71 c2o 15 encoder/15;
#X obj 521 98 c2o 16 encoder/16;
#X obj 364 28 c2o 9 encoder/9;
#X obj 454 405 outlet;
#X obj 657 245 list prepend send;
#X obj 657 272 list trim;
#X obj 657 149 ctlin 2;
#X obj 656 217 oscformat encoder/2;
#X obj 654 183 * 5e-005;
#X connect 0 0 15 0;
#X connect 1 0 15 0;
#X connect 2 0 15 0;
#X connect 3 0 15 0;
#X connect 4 0 15 0;
#X connect 5 0 15 0;
#X connect 6 0 15 0;
#X connect 7 0 15 0;
#X connect 8 0 15 0;
#X connect 9 0 15 0;
#X connect 10 0 15 0;
#X connect 11 0 15 0;
#X connect 12 0 15 0;
#X connect 13 0 15 0;
#X connect 14 0 15 0;
#X connect 16 0 17 0;
#X connect 17 0 15 0;
#X connect 18 0 20 0;
#X connect 19 0 16 0;
#X connect 20 0 19 0;
