#N canvas 362 91 790 651 10;
#X obj 20 16 adc~;
#X obj 27 62 bonk~;
#X obj 27 92 unpack f f f f f f f f f f f;
#X msg 93 31 spew 1;
#X obj 93 10 loadbang;
#X text 41 115 < takes the lowest tracked band from bonk;
#X text 75 142 < and checks if it's greater than the threshold;
#X obj 27 484 outlet;
#X obj 262 512 outlet;
#X obj 27 168 sel 1;
#X obj 29 324 bng 15 250 50 0 empty empty empty 17 7 0 10 -262144 -1
-1;
#X obj 27 248 spigot 1;
#X msg 76 225 1;
#X msg 100 248 0;
#X obj 77 202 del 250;
#X obj 28 274 t a b b;
#X text 149 205 < 250 ms debounce;
#X obj 260 253 r beatramp/reset;
#X obj 262 329 f;
#X obj 291 329 + 1;
#X obj 262 310 bng 15 250 50 0 empty empty empty 17 7 0 10 -262144
-1 -1;
#X msg 337 298 0;
#X floatatom 262 363 5 0 0 0 - - -, f 5;
#X msg 261 281 1;
#X text 308 360 < this should increment every beat;
#X text 68 336 every kick;
#X text 279 389 The kick resets this counter \, so if this number blows
out \,;
#X text 283 405 it means that the beat is continuing without any kick
drums;
#X text 286 421 i.e. we are in a "breakdown";
#X obj 262 479 change;
#X text 74 482 < raw "kick" output;
#X obj 32 401 t b b;
#X obj 29 426 del 50;
#X msg 34 449 0;
#X msg 84 427 1;
#X text 54 321 < this should bang;
#X obj 388 499 list prepend send;
#X obj 388 526 list trim;
#X obj 388 473 oscformat breakdown;
#X floatatom 338 489 5 0 0 0 - - -, f 5;
#X obj 387 563 s breakdown;
#X obj 88 542 list prepend send;
#X obj 88 569 list trim;
#X obj 88 516 oscformat kick;
#X obj 87 606 s kick;
#X obj 262 455 > \$1;
#X obj 27 139 >;
#X obj 243 21 inlet;
#X connect 0 0 1 0;
#X connect 0 1 1 0;
#X connect 1 0 2 0;
#X connect 2 0 46 0;
#X connect 3 0 1 0;
#X connect 4 0 3 0;
#X connect 9 0 11 0;
#X connect 10 0 31 0;
#X connect 11 0 15 0;
#X connect 12 0 11 1;
#X connect 13 0 11 1;
#X connect 14 0 12 0;
#X connect 15 0 10 0;
#X connect 15 0 21 0;
#X connect 15 1 14 0;
#X connect 15 2 13 0;
#X connect 17 0 23 0;
#X connect 18 0 19 0;
#X connect 18 0 22 0;
#X connect 19 0 18 1;
#X connect 20 0 18 0;
#X connect 21 0 18 0;
#X connect 22 0 45 0;
#X connect 23 0 20 0;
#X connect 29 0 8 0;
#X connect 29 0 39 0;
#X connect 31 0 32 0;
#X connect 31 1 34 0;
#X connect 32 0 33 0;
#X connect 33 0 7 0;
#X connect 34 0 7 0;
#X connect 34 0 43 0;
#X connect 36 0 37 0;
#X connect 37 0 40 0;
#X connect 38 0 36 0;
#X connect 39 0 38 0;
#X connect 41 0 42 0;
#X connect 42 0 44 0;
#X connect 43 0 41 0;
#X connect 45 0 29 0;
#X connect 46 0 9 0;
#X connect 47 0 46 1;
