#N canvas 468 137 679 665 10;
#X msg 341 331 connect localhost 9000;
#X obj 277 381 netsend -u -b;
#X obj 401 156 oscformat;
#X obj 401 184 list prepend send;
#X obj 401 213 list trim;
#X msg 401 118 set /MainCamera/TestProperties/Single, f 41;
#X obj 348 113 line;
#X msg 348 40 1 1000;
#X msg 406 40 0 1000;
#X obj 496 71 + 1;
#X obj 468 71 i;
#X obj 468 93 % 2;
#X obj 468 23 tgl 15 0 empty empty empty 17 7 0 10 -262144 -1 -1 1
1;
#X obj 348 11 sel 1;
#X obj 468 46 metro 1000;
#X obj 101 205 oscformat;
#X obj 101 233 list prepend send;
#X obj 101 262 list trim;
#X obj 48 162 line;
#X obj 196 120 + 1;
#X obj 168 120 i;
#X obj 168 142 % 2;
#X obj 168 72 tgl 15 0 empty empty empty 17 7 0 10 -262144 -1 -1 1
1;
#X obj 48 60 sel 1;
#X obj 168 95 metro 500;
#X msg 48 89 45 500;
#X msg 106 89 90 450;
#X msg 101 167 set /MainCamera/Transform/EulerAngles, f 41;
#X connect 0 0 1 0;
#X connect 2 0 3 0;
#X connect 3 0 4 0;
#X connect 4 0 1 0;
#X connect 5 0 2 0;
#X connect 6 0 2 0;
#X connect 7 0 6 0;
#X connect 8 0 6 0;
#X connect 9 0 10 1;
#X connect 10 0 9 0;
#X connect 10 0 11 0;
#X connect 11 0 13 0;
#X connect 12 0 14 0;
#X connect 13 0 7 0;
#X connect 13 1 8 0;
#X connect 14 0 10 0;
#X connect 15 0 16 0;
#X connect 16 0 17 0;
#X connect 17 0 1 0;
#X connect 18 0 15 0;
#X connect 19 0 20 1;
#X connect 20 0 19 0;
#X connect 20 0 21 0;
#X connect 21 0 23 0;
#X connect 22 0 24 0;
#X connect 23 0 25 0;
#X connect 23 1 26 0;
#X connect 24 0 20 0;
#X connect 25 0 18 0;
#X connect 26 0 18 0;
#X connect 27 0 15 0;
