#N canvas 174 208 750 478 10;
#X obj 18 75 vsl 60 60 0 1 0 0 empty empty empty 0 -9 0 10 -262144
-1 -1 0 1;
#X floatatom 54 51 5 0 0 0 - - -, f 5;
#X obj 33 213 r beatramp;
#X obj 28 51 bng 15 250 50 0 empty empty empty 17 7 0 10 -262144 -1
-1;
#X obj 137 223 r beatramp/reset;
#X obj 129 63 tgl 15 0 empty empty empty 17 7 0 10 -262144 -1 -1 0
1;
#X obj 294 68 tgl 15 0 empty empty empty 17 7 0 10 -262144 -1 -1 1
1;
#X obj 129 26 kick-onset-detector 45 1;
#X obj 387 223 r breakdown;
#X obj 505 225 r kick;
#X obj 37 234 spigot;
#X obj 110 214 tgl 15 0 empty empty empty 17 7 0 10 -262144 -1 -1 1
1;
#X obj 137 244 spigot;
#X obj 253 224 tgl 15 0 empty empty empty 17 7 0 10 -262144 -1 -1 1
1;
#X obj 120 362 s osc-clients;
#X obj 421 250 spigot;
#X obj 472 224 tgl 15 0 empty empty empty 17 7 0 10 -262144 -1 -1 1
1;
#X obj 504 251 spigot;
#X obj 555 225 tgl 15 0 empty empty empty 17 7 0 10 -262144 -1 -1 1
1;
#X obj 28 24 beatramp;
#X obj 89 75 vsl 15 60 0 1 0 0 empty barramp-raw empty 0 -9 0 10 -262144
-1 -1 2950 1;
#X obj 276 231 r barramp;
#X obj 277 252 spigot;
#X obj 346 232 tgl 15 0 empty empty empty 17 7 0 10 -262144 -1 -1 1
1;
#X obj 628 15 cnv 15 100 60 empty empty empty 20 12 0 14 -261234 -66577
0;
#N canvas 1034 137 599 383 clients 0;
#X obj 68 210 netsend -u -b;
#X obj 83 92 loadbang;
#X msg 83 167 connect 10.0.0.8 8000;
#X obj 94 273 spigot;
#X obj 137 247 tgl 15 0 empty empty auto_reconnect 17 7 0 10 -262144
-1 -1 0 1;
#X obj 81 237 sel 0;
#X obj 288 210 netsend -u -b;
#X obj 303 93 loadbang;
#X obj 314 273 spigot;
#X obj 357 247 tgl 15 0 empty empty auto_reconnect 17 7 0 10 -262144
-1 -1 0 1;
#X obj 301 237 sel 0;
#X obj 69 39 r osc-clients;
#X msg 303 167 connect localhost 8000;
#X obj 20 309 print disconnected from 10.0.0.8;
#X obj 280 316 print disconnected from localhost;
#X msg 197 40 disconnect;
#X connect 0 0 5 0;
#X connect 1 0 2 0;
#X connect 2 0 0 0;
#X connect 3 0 13 0;
#X connect 3 0 2 0;
#X connect 4 0 3 1;
#X connect 5 0 3 0;
#X connect 6 0 10 0;
#X connect 7 0 12 0;
#X connect 8 0 12 0;
#X connect 8 0 14 0;
#X connect 9 0 8 1;
#X connect 10 0 8 0;
#X connect 11 0 0 0;
#X connect 11 0 6 0;
#X connect 12 0 6 0;
#X connect 15 0 0 0;
#X connect 15 0 6 0;
#X restore 635 25 pd clients;
#X connect 2 0 10 0;
#X connect 4 0 12 0;
#X connect 7 0 5 0;
#X connect 7 1 6 0;
#X connect 8 0 15 0;
#X connect 9 0 17 0;
#X connect 10 0 14 0;
#X connect 11 0 10 1;
#X connect 12 0 14 0;
#X connect 13 0 12 1;
#X connect 15 0 14 0;
#X connect 16 0 15 1;
#X connect 17 0 14 0;
#X connect 18 0 17 1;
#X connect 19 0 3 0;
#X connect 19 1 0 0;
#X connect 19 2 1 0;
#X connect 21 0 22 0;
#X connect 22 0 14 0;
#X connect 23 0 22 1;
