#N canvas 174 208 950 478 10;
#X obj 28 75 vsl 60 60 0 1 0 0 empty empty empty 0 -9 0 10 -262144
-1 -1 0 1;
#X floatatom 54 51 5 0 0 0 - - -, f 5;
#X obj 28 300 netsend -u -b;
#X msg 43 257 connect localhost 8000;
#X obj 43 233 loadbang;
#X obj 28 163 r beatramp;
#X obj 28 51 bng 15 250 50 0 empty empty empty 17 7 0 10 -262144 -1
-1;
#X obj 122 163 r beatramp/reset;
#X obj 129 63 tgl 15 0 empty empty empty 17 7 0 10 -262144 -1 -1 0
1;
#X obj 294 68 tgl 15 0 empty empty empty 17 7 0 10 -262144 -1 -1 0
1;
#X obj 129 26 kick-onset-detector 45 1;
#X text 328 57 second argument is how many beats to wait before we
can declare a "breakdown";
#X obj 248 164 r breakdown;
#X text 327 22 first argument is the volume threshold;
#X obj 251 187 r kick;
#X obj 28 24 beatramp;
#X connect 3 0 2 0;
#X connect 4 0 3 0;
#X connect 5 0 2 0;
#X connect 7 0 2 0;
#X connect 10 0 8 0;
#X connect 10 1 9 0;
#X connect 12 0 2 0;
#X connect 14 0 2 0;
#X connect 15 0 6 0;
#X connect 15 1 0 0;
#X connect 15 2 1 0;
