#N canvas 269 140 1081 560 10;
#X obj 268 235 loadbang;
#X obj 283 495 spigot;
#X obj 326 469 tgl 15 0 empty empty auto_reconnect 17 7 0 10 -262144
-1 -1 1 1;
#X obj 270 459 sel 0;
#X msg 378 417 disconnect;
#X obj 45 112 oscformat op1/note;
#X obj 235 115 oscformat op1/encoder/;
#X msg 367 29 set op1/encoder/\$1;
#X obj 231 54 t a a;
#X obj 234 86 unpack a a;
#X obj 47 36 t a a;
#X msg 77 77 set op1/note/\$1;
#X obj 669 72 oscformat op1/state;
#X obj 446 79 == 67;
#X obj 414 109 spigot;
#X obj 414 132 sel 1;
#X msg 414 181 set op1/encoder/push/4;
#X msg 391 200 1;
#X obj 414 157 t b b;
#X obj 656 210 inlet;
#X obj 656 245 tgl 15 0 empty empty empty 17 7 0 10 -262144 -1 -1 1
1;
#X obj 658 307 spigot;
#X obj 656 285 oscparse;
#X obj 246 423 netsend -u -b;
#X obj 252 381 list trim;
#X obj 242 344 list prepend send;
#X obj 646 332 print;
#X obj 242 314 list trim;
#N canvas 704 144 450 300 mappings 0;
#X obj 28 52 notein;
#X obj 33 104 spigot;
#X obj 89 61 spigot;
#X obj 142 98 != 0;
#X obj 33 158 - 53;
#X obj 33 203 outlet;
#X obj 306 18 ctlin;
#X obj 324 93 spigot;
#X obj 272 63 pack a a;
#X obj 245 207 outlet;
#X obj 295 40 / 127;
#X obj 128 44 ==;
#X obj 356 59 ==;
#X obj 115 16 loadbang;
#X obj 196 11 \$1;
#X connect 0 0 1 0;
#X connect 0 1 2 0;
#X connect 0 2 11 0;
#X connect 1 0 4 0;
#X connect 2 0 3 0;
#X connect 3 0 1 1;
#X connect 4 0 5 0;
#X connect 6 0 10 0;
#X connect 6 1 8 0;
#X connect 6 2 12 0;
#X connect 7 0 9 0;
#X connect 8 0 7 0;
#X connect 10 0 8 1;
#X connect 11 0 2 1;
#X connect 12 0 7 1;
#X connect 13 0 14 0;
#X connect 14 0 11 1;
#X connect 14 0 12 1;
#X restore 46 7 pd mappings \$1;
#N canvas 660 217 450 300 states 0;
#X obj 193 226 outlet;
#X obj 66 18 ctlin;
#X obj 84 86 spigot;
#X obj 118 35 == 0;
#X obj 72 56 spigot;
#X obj 87 112 sel 50 51 52 21 22 23 24 25;
#X msg 70 153 1;
#X msg 113 152 2;
#X msg 155 154 3;
#X msg 198 156 4;
#X msg 242 151 5;
#X msg 287 154 6;
#X msg 329 156 7;
#X msg 373 156 8;
#X obj 126 61 ==;
#X obj 192 45 \$1;
#X obj 259 52 loadbang;
#X connect 1 0 3 0;
#X connect 1 1 4 0;
#X connect 1 2 14 0;
#X connect 2 0 5 0;
#X connect 3 0 4 1;
#X connect 4 0 2 0;
#X connect 5 0 6 0;
#X connect 5 1 7 0;
#X connect 5 2 8 0;
#X connect 5 3 9 0;
#X connect 5 4 10 0;
#X connect 5 5 11 0;
#X connect 5 6 12 0;
#X connect 5 7 13 0;
#X connect 6 0 0 0;
#X connect 7 0 0 0;
#X connect 8 0 0 0;
#X connect 9 0 0 0;
#X connect 10 0 0 0;
#X connect 11 0 0 0;
#X connect 12 0 0 0;
#X connect 13 0 0 0;
#X connect 14 0 2 1;
#X connect 15 0 14 1;
#X connect 16 0 15 0;
#X restore 669 36 pd states \$1;
#X msg 277 301 connect 10.0.0.9 5000;
#X connect 0 0 30 0;
#X connect 1 0 30 0;
#X connect 2 0 1 1;
#X connect 3 0 1 0;
#X connect 4 0 23 0;
#X connect 5 0 27 0;
#X connect 6 0 27 0;
#X connect 7 0 6 0;
#X connect 8 0 9 0;
#X connect 9 0 7 0;
#X connect 9 0 13 0;
#X connect 9 1 6 0;
#X connect 9 1 14 0;
#X connect 10 0 5 0;
#X connect 10 1 11 0;
#X connect 11 0 5 0;
#X connect 12 0 27 0;
#X connect 13 0 14 1;
#X connect 14 0 15 0;
#X connect 15 0 18 0;
#X connect 16 0 6 0;
#X connect 17 0 6 0;
#X connect 18 0 17 0;
#X connect 18 1 16 0;
#X connect 19 0 20 0;
#X connect 20 0 21 1;
#X connect 21 0 26 0;
#X connect 22 0 21 0;
#X connect 23 0 3 0;
#X connect 24 0 23 0;
#X connect 25 0 24 0;
#X connect 27 0 25 0;
#X connect 27 0 22 0;
#X connect 28 0 10 0;
#X connect 28 1 8 0;
#X connect 29 0 12 0;
#X connect 30 0 23 0;
