#N canvas 177 157 674 560 10;
#X obj 257 386 netsend -u -b;
#X obj 272 268 loadbang;
#X obj 283 449 spigot;
#X obj 326 423 tgl 15 0 empty empty auto_reconnect 17 7 0 10 -262144
-1 -1 1 1;
#X obj 270 413 sel 0;
#X msg 272 343 connect localhost 5000;
#X obj 209 485 print disconnected from localhost;
#X msg 496 381 disconnect;
#N canvas 704 144 450 300 mappings 1;
#X obj 30 20 notein;
#X obj 33 104 spigot;
#X obj 121 27 == 15;
#X obj 89 61 spigot;
#X obj 142 98 != 0;
#X obj 33 158 - 53;
#X obj 33 203 outlet;
#X obj 306 18 ctlin;
#X obj 356 59 == 15;
#X obj 324 93 spigot;
#X obj 272 63 pack a a;
#X obj 245 207 outlet;
#X obj 295 40 / 127;
#X connect 0 0 1 0;
#X connect 0 1 3 0;
#X connect 0 2 2 0;
#X connect 1 0 5 0;
#X connect 2 0 3 1;
#X connect 3 0 4 0;
#X connect 4 0 1 1;
#X connect 5 0 6 0;
#X connect 7 0 12 0;
#X connect 7 1 10 0;
#X connect 7 2 8 0;
#X connect 8 0 9 1;
#X connect 9 0 11 0;
#X connect 10 0 9 0;
#X connect 12 0 10 1;
#X restore 46 7 pd mappings;
#X obj 45 112 oscformat op1/note;
#X obj 45 147 list prepend send;
#X obj 45 184 list trim;
#X obj 235 147 list prepend send;
#X obj 235 184 list trim;
#X obj 235 112 oscformat op1/encoder/;
#X msg 355 32 set op1/encoder/\$1;
#X obj 236 62 t a a;
#X obj 234 86 unpack a a;
#X obj 47 36 t a a;
#X msg 77 77 set op1/note/\$1;
#X connect 0 0 4 0;
#X connect 1 0 5 0;
#X connect 2 0 5 0;
#X connect 2 0 6 0;
#X connect 3 0 2 1;
#X connect 4 0 2 0;
#X connect 5 0 0 0;
#X connect 7 0 0 0;
#X connect 8 0 18 0;
#X connect 8 1 16 0;
#X connect 9 0 10 0;
#X connect 10 0 11 0;
#X connect 11 0 0 0;
#X connect 12 0 13 0;
#X connect 13 0 0 0;
#X connect 14 0 12 0;
#X connect 15 0 14 0;
#X connect 16 0 17 0;
#X connect 16 1 15 0;
#X connect 17 1 14 0;
#X connect 18 0 9 0;
#X connect 18 1 19 0;
#X connect 19 0 9 0;
