#N canvas 917 193 450 300 10;
#X msg 93 202 0;
#X obj 30 44 netreceive -u -b 1000;
#X obj 30 70 oscparse;
#X obj 35 110 list trim;
#X obj 35 132 unpack s f;
#X obj 55 178 sel ortho;
#X msg 55 204 1;
#X obj 28 228 spigot;
#X obj 267 235 outlet;
#X msg 120 9 listen 1000;
#X obj 269 92 loadbang;
#X connect 0 0 7 1;
#X connect 1 0 2 0;
#X connect 2 0 3 0;
#X connect 3 0 4 0;
#X connect 4 0 5 0;
#X connect 4 1 7 0;
#X connect 5 0 6 0;
#X connect 5 1 0 0;
#X connect 6 0 7 1;
#X connect 7 0 8 0;
#X connect 9 0 1 0;
#X connect 10 0 9 0;
