#N canvas 454 180 450 458 10;
#X obj 27 225 list prepend send;
#X obj 27 252 list trim;
#X obj 26 196 oscformat ortho;
#X obj 26 158 / 127;
#X obj 169 316 netsend -u -b;
#X obj 184 198 loadbang;
#X obj 195 379 spigot;
#X obj 238 353 tgl 15 0 empty empty auto_reconnect 17 7 0 10 -262144
-1 -1 0 1;
#X obj 182 343 sel 0;
#X msg 290 301 disconnect;
#X msg 184 274 connect 10.0.0.15 1000;
#X obj 27 97 spigot;
#X obj 20 15 ctlin \$1;
#X obj 70 53 ==;
#X obj 104 14 loadbang;
#X obj 123 48 \$2;
#X obj 34 421 outlet;
#X obj 324 23 inlet;
#X obj 324 60 tgl 15 0 empty empty empty 17 7 0 10 -262144 -1 -1 0
1;
#X obj 294 86 spigot;
#X obj 293 114 print ortho-remote;
#X connect 0 0 1 0;
#X connect 1 0 4 0;
#X connect 2 0 0 0;
#X connect 3 0 2 0;
#X connect 3 0 16 0;
#X connect 3 0 19 0;
#X connect 4 0 8 0;
#X connect 5 0 10 0;
#X connect 6 0 10 0;
#X connect 7 0 6 1;
#X connect 8 0 6 0;
#X connect 9 0 4 0;
#X connect 10 0 4 0;
#X connect 11 0 3 0;
#X connect 12 0 11 0;
#X connect 12 1 13 0;
#X connect 13 0 11 1;
#X connect 14 0 15 0;
#X connect 15 0 13 1;
#X connect 17 0 18 0;
#X connect 18 0 19 1;
#X connect 19 0 20 0;
