#N canvas 123 187 450 300 10;
#X obj 64 250 outlet;
#X obj 49 34 notein;
#X obj 43 97 == \$1;
#X obj 50 141 spigot;
#X obj 105 110 != 0;
#X obj 49 185 sel 1;
#X connect 1 0 2 0;
#X connect 1 1 4 0;
#X connect 2 0 3 0;
#X connect 3 0 5 0;
#X connect 4 0 3 1;
#X connect 5 0 0 0;
