#N canvas 0 50 502 573 10;
#X obj 24 24 m2o 60 tanzmaus/kick;
#X obj 71 51 m2o 61 tanzmaus/snare;
#X obj 97 78 m2o 62 tanzmaus/rimshot;
#X obj 113 106 m2o 63 tanzmaus/clap;
#X obj 176 20 m2o 64 tanzmaus/toms;
#X obj 216 48 m2o 65 tanzmaus/sample1;
#X obj 345 15 m2o 68 tanzmaus/sample2;
#X obj 275 75 c2o 84 tanzmaus/sample1/pitch;
#X obj 163 514 outlet;
#X connect 0 0 8 0;
#X connect 1 0 8 0;
#X connect 2 0 8 0;
#X connect 3 0 8 0;
#X connect 4 0 8 0;
#X connect 5 0 8 0;
#X connect 6 0 8 0;
#X connect 7 0 8 0;
